<svg id="visual" viewBox="0 0 1920 1080" width="current" height="current" xmlns="http://www.w3.org/2000/svg" xmlns:xlink="http://www.w3.org/1999/xlink" version="1.1"><rect x="0" y="0" width="1920" height="1080" fill="#001220"></rect><path d="M0 801L45.7 803.5C91.3 806 182.7 811 274.2 800.7C365.7 790.3 457.3 764.7 548.8 759C640.3 753.3 731.7 767.7 823 775.3C914.3 783 1005.7 784 1097 775C1188.3 766 1279.7 747 1371.2 751.7C1462.7 756.3 1554.3 784.7 1645.8 785C1737.3 785.3 1828.7 757.7 1874.3 743.8L1920 730L1920 1081L1874.3 1081C1828.7 1081 1737.3 1081 1645.8 1081C1554.3 1081 1462.7 1081 1371.2 1081C1279.7 1081 1188.3 1081 1097 1081C1005.7 1081 914.3 1081 823 1081C731.7 1081 640.3 1081 548.8 1081C457.3 1081 365.7 1081 274.2 1081C182.7 1081 91.3 1081 45.7 1081L0 1081Z" fill="#1e90ff"></path><path d="M0 817L45.7 814.2C91.3 811.3 182.7 805.7 274.2 806.2C365.7 806.7 457.3 813.3 548.8 820.5C640.3 827.7 731.7 835.3 823 829.8C914.3 824.3 1005.7 805.7 1097 808.8C1188.3 812 1279.7 837 1371.2 853.5C1462.7 870 1554.3 878 1645.8 871.7C1737.3 865.3 1828.7 844.7 1874.3 834.3L1920 824L1920 1081L1874.3 1081C1828.7 1081 1737.3 1081 1645.8 1081C1554.3 1081 1462.7 1081 1371.2 1081C1279.7 1081 1188.3 1081 1097 1081C1005.7 1081 914.3 1081 823 1081C731.7 1081 640.3 1081 548.8 1081C457.3 1081 365.7 1081 274.2 1081C182.7 1081 91.3 1081 45.7 1081L0 1081Z" fill="#0080ff"></path><path d="M0 861L45.7 874.5C91.3 888 182.7 915 274.2 915.8C365.7 916.7 457.3 891.3 548.8 892.3C640.3 893.3 731.7 920.7 823 921.7C914.3 922.7 1005.7 897.3 1097 884C1188.3 870.7 1279.7 869.3 1371.2 871.3C1462.7 873.3 1554.3 878.7 1645.8 880.5C1737.3 882.3 1828.7 880.7 1874.3 879.8L1920 879L1920 1081L1874.3 1081C1828.7 1081 1737.3 1081 1645.8 1081C1554.3 1081 1462.7 1081 1371.2 1081C1279.7 1081 1188.3 1081 1097 1081C1005.7 1081 914.3 1081 823 1081C731.7 1081 640.3 1081 548.8 1081C457.3 1081 365.7 1081 274.2 1081C182.7 1081 91.3 1081 45.7 1081L0 1081Z" fill="#006eff"></path><path d="M0 914L45.7 921.8C91.3 929.7 182.7 945.3 274.2 957.2C365.7 969 457.3 977 548.8 973.7C640.3 970.3 731.7 955.7 823 950.5C914.3 945.3 1005.7 949.7 1097 944.5C1188.3 939.3 1279.7 924.7 1371.2 931.8C1462.7 939 1554.3 968 1645.8 975C1737.3 982 1828.7 967 1874.3 959.5L1920 952L1920 1081L1874.3 1081C1828.7 1081 1737.3 1081 1645.8 1081C1554.3 1081 1462.7 1081 1371.2 1081C1279.7 1081 1188.3 1081 1097 1081C1005.7 1081 914.3 1081 823 1081C731.7 1081 640.3 1081 548.8 1081C457.3 1081 365.7 1081 274.2 1081C182.7 1081 91.3 1081 45.7 1081L0 1081Z" fill="#195afe"></path><path d="M0 981L45.7 991.2C91.3 1001.3 182.7 1021.7 274.2 1030.3C365.7 1039 457.3 1036 548.8 1032C640.3 1028 731.7 1023 823 1012.8C914.3 1002.7 1005.7 987.3 1097 984.3C1188.3 981.3 1279.7 990.7 1371.2 997.7C1462.7 1004.7 1554.3 1009.3 1645.8 1012C1737.3 1014.7 1828.7 1015.3 1874.3 1015.7L1920 1016L1920 1081L1874.3 1081C1828.7 1081 1737.3 1081 1645.8 1081C1554.3 1081 1462.7 1081 1371.2 1081C1279.7 1081 1188.3 1081 1097 1081C1005.7 1081 914.3 1081 823 1081C731.7 1081 640.3 1081 548.8 1081C457.3 1081 365.7 1081 274.2 1081C182.7 1081 91.3 1081 45.7 1081L0 1081Z" fill="#3742fa"></path></svg>